<mxfile host="app.diagrams.net" agent="Mozilla/5.0 (X11; Linux x86_64; rv:134.0) Gecko/20100101 Firefox/134.0" version="26.0.5" pages="3">
  <diagram name="Page-1" id="P5An86bhmq9kO7vAwXX3">
    <mxGraphModel dx="1221" dy="818" grid="1" gridSize="10" guides="1" tooltips="1" connect="1" arrows="1" fold="1" page="1" pageScale="1" pageWidth="850" pageHeight="1100" background="none" math="0" shadow="0" adaptiveColors="auto">
      <root>
        <mxCell id="0" />
        <mxCell id="1" parent="0" />
        <mxCell id="5TeGuhc-esVz1vt5C5Wg-3" value="Client" style="shape=umlLifeline;perimeter=lifelinePerimeter;whiteSpace=wrap;html=1;container=1;dropTarget=0;collapsible=0;recursiveResize=0;outlineConnect=0;portConstraint=eastwest;newEdgeStyle={&quot;edgeStyle&quot;:&quot;elbowEdgeStyle&quot;,&quot;elbow&quot;:&quot;vertical&quot;,&quot;curved&quot;:0,&quot;rounded&quot;:0};labelBackgroundColor=none;fillColor=#F2CC8F;strokeColor=#E07A5F;fontColor=#393C56;" vertex="1" parent="1">
          <mxGeometry x="230" y="240" width="100" height="330" as="geometry" />
        </mxCell>
        <mxCell id="5TeGuhc-esVz1vt5C5Wg-17" value="" style="html=1;points=[[0,0,0,0,5],[0,1,0,0,-5],[1,0,0,0,5],[1,1,0,0,-5]];perimeter=orthogonalPerimeter;outlineConnect=0;targetShapes=umlLifeline;portConstraint=eastwest;newEdgeStyle={&quot;curved&quot;:0,&quot;rounded&quot;:0};labelBackgroundColor=none;fillColor=#F2CC8F;strokeColor=#E07A5F;fontColor=#393C56;" vertex="1" parent="5TeGuhc-esVz1vt5C5Wg-3">
          <mxGeometry x="45" y="60" width="10" height="210" as="geometry" />
        </mxCell>
        <mxCell id="5TeGuhc-esVz1vt5C5Wg-4" value="" style="shape=umlLifeline;perimeter=lifelinePerimeter;whiteSpace=wrap;html=1;container=1;dropTarget=0;collapsible=0;recursiveResize=0;outlineConnect=0;portConstraint=eastwest;newEdgeStyle={&quot;curved&quot;:0,&quot;rounded&quot;:0};participant=umlActor;labelBackgroundColor=none;fillColor=#F2CC8F;strokeColor=#E07A5F;fontColor=#393C56;" vertex="1" parent="1">
          <mxGeometry x="100" y="240" width="20" height="330" as="geometry" />
        </mxCell>
        <mxCell id="5TeGuhc-esVz1vt5C5Wg-5" value="" style="endArrow=classic;html=1;rounded=0;labelBackgroundColor=none;fontColor=default;strokeColor=#E07A5F;" edge="1" parent="1" source="5TeGuhc-esVz1vt5C5Wg-4" target="5TeGuhc-esVz1vt5C5Wg-3">
          <mxGeometry width="50" height="50" relative="1" as="geometry">
            <mxPoint x="320" y="330" as="sourcePoint" />
            <mxPoint x="370" y="280" as="targetPoint" />
            <Array as="points">
              <mxPoint x="160" y="310" />
            </Array>
          </mxGeometry>
        </mxCell>
        <mxCell id="5TeGuhc-esVz1vt5C5Wg-6" value="sendRequest(requestDetails)" style="edgeLabel;html=1;align=center;verticalAlign=middle;resizable=0;points=[];labelBackgroundColor=none;fontColor=#393C56;" vertex="1" connectable="0" parent="5TeGuhc-esVz1vt5C5Wg-5">
          <mxGeometry x="0.2435" relative="1" as="geometry">
            <mxPoint x="-22" y="-10" as="offset" />
          </mxGeometry>
        </mxCell>
        <mxCell id="5TeGuhc-esVz1vt5C5Wg-7" value="&lt;div&gt;System&lt;/div&gt;&lt;div&gt;Manger&lt;br&gt;&lt;/div&gt;" style="shape=umlLifeline;perimeter=lifelinePerimeter;whiteSpace=wrap;html=1;container=1;dropTarget=0;collapsible=0;recursiveResize=0;outlineConnect=0;portConstraint=eastwest;newEdgeStyle={&quot;edgeStyle&quot;:&quot;elbowEdgeStyle&quot;,&quot;elbow&quot;:&quot;vertical&quot;,&quot;curved&quot;:0,&quot;rounded&quot;:0};labelBackgroundColor=none;fillColor=#F2CC8F;strokeColor=#E07A5F;fontColor=#393C56;" vertex="1" parent="1">
          <mxGeometry x="440" y="240" width="100" height="330" as="geometry" />
        </mxCell>
        <mxCell id="5TeGuhc-esVz1vt5C5Wg-18" value="" style="html=1;points=[[0,0,0,0,5],[0,1,0,0,-5],[1,0,0,0,5],[1,1,0,0,-5]];perimeter=orthogonalPerimeter;outlineConnect=0;targetShapes=umlLifeline;portConstraint=eastwest;newEdgeStyle={&quot;curved&quot;:0,&quot;rounded&quot;:0};labelBackgroundColor=none;fillColor=#F2CC8F;strokeColor=#E07A5F;fontColor=#393C56;" vertex="1" parent="5TeGuhc-esVz1vt5C5Wg-7">
          <mxGeometry x="45" y="95" width="10" height="165" as="geometry" />
        </mxCell>
        <mxCell id="5TeGuhc-esVz1vt5C5Wg-8" value="" style="endArrow=classic;html=1;rounded=0;labelBackgroundColor=none;fontColor=default;strokeColor=#E07A5F;" edge="1" parent="1">
          <mxGeometry width="50" height="50" relative="1" as="geometry">
            <mxPoint x="279.6666666666665" y="350" as="sourcePoint" />
            <mxPoint x="489.5" y="350" as="targetPoint" />
          </mxGeometry>
        </mxCell>
        <mxCell id="5TeGuhc-esVz1vt5C5Wg-9" value="addRequest(requestDetails)" style="edgeLabel;html=1;align=center;verticalAlign=middle;resizable=0;points=[];labelBackgroundColor=none;fontColor=#393C56;" vertex="1" connectable="0" parent="5TeGuhc-esVz1vt5C5Wg-8">
          <mxGeometry x="-0.0087" y="-4" relative="1" as="geometry">
            <mxPoint x="6" y="-14" as="offset" />
          </mxGeometry>
        </mxCell>
        <mxCell id="5TeGuhc-esVz1vt5C5Wg-10" value="&lt;div&gt;Data&lt;/div&gt;&lt;div&gt;Handler&lt;br&gt;&lt;/div&gt;" style="shape=umlLifeline;perimeter=lifelinePerimeter;whiteSpace=wrap;html=1;container=1;dropTarget=0;collapsible=0;recursiveResize=0;outlineConnect=0;portConstraint=eastwest;newEdgeStyle={&quot;edgeStyle&quot;:&quot;elbowEdgeStyle&quot;,&quot;elbow&quot;:&quot;vertical&quot;,&quot;curved&quot;:0,&quot;rounded&quot;:0};labelBackgroundColor=none;fillColor=#F2CC8F;strokeColor=#E07A5F;fontColor=#393C56;" vertex="1" parent="1">
          <mxGeometry x="650" y="240" width="100" height="330" as="geometry" />
        </mxCell>
        <mxCell id="5TeGuhc-esVz1vt5C5Wg-21" value="" style="html=1;points=[[0,0,0,0,5],[0,1,0,0,-5],[1,0,0,0,5],[1,1,0,0,-5]];perimeter=orthogonalPerimeter;outlineConnect=0;targetShapes=umlLifeline;portConstraint=eastwest;newEdgeStyle={&quot;curved&quot;:0,&quot;rounded&quot;:0};labelBackgroundColor=none;fillColor=#F2CC8F;strokeColor=#E07A5F;fontColor=#393C56;" vertex="1" parent="5TeGuhc-esVz1vt5C5Wg-10">
          <mxGeometry x="45" y="137.5" width="10" height="80" as="geometry" />
        </mxCell>
        <mxCell id="5TeGuhc-esVz1vt5C5Wg-12" value="" style="endArrow=classic;html=1;rounded=0;labelBackgroundColor=none;fontColor=default;strokeColor=#E07A5F;" edge="1" parent="1">
          <mxGeometry width="50" height="50" relative="1" as="geometry">
            <mxPoint x="489.6666666666665" y="390" as="sourcePoint" />
            <mxPoint x="699.5" y="390" as="targetPoint" />
          </mxGeometry>
        </mxCell>
        <mxCell id="5TeGuhc-esVz1vt5C5Wg-13" value="saveData()" style="edgeLabel;html=1;align=center;verticalAlign=middle;resizable=0;points=[];labelBackgroundColor=none;fontColor=#393C56;" vertex="1" connectable="0" parent="5TeGuhc-esVz1vt5C5Wg-12">
          <mxGeometry x="-0.3503" relative="1" as="geometry">
            <mxPoint x="42" y="-10" as="offset" />
          </mxGeometry>
        </mxCell>
        <mxCell id="5TeGuhc-esVz1vt5C5Wg-15" value="" style="endArrow=classic;html=1;rounded=0;labelBackgroundColor=none;fontColor=default;strokeColor=#E07A5F;" edge="1" parent="1">
          <mxGeometry width="50" height="50" relative="1" as="geometry">
            <mxPoint x="489.5" y="490" as="sourcePoint" />
            <mxPoint x="279.6666666666665" y="490" as="targetPoint" />
          </mxGeometry>
        </mxCell>
        <mxCell id="5TeGuhc-esVz1vt5C5Wg-16" value="confirmSubmission()" style="edgeLabel;html=1;align=center;verticalAlign=middle;resizable=0;points=[];labelBackgroundColor=none;fontColor=#393C56;" vertex="1" connectable="0" parent="5TeGuhc-esVz1vt5C5Wg-15">
          <mxGeometry x="-0.1025" y="2" relative="1" as="geometry">
            <mxPoint y="-12" as="offset" />
          </mxGeometry>
        </mxCell>
        <mxCell id="5TeGuhc-esVz1vt5C5Wg-19" value="" style="endArrow=classic;html=1;rounded=0;labelBackgroundColor=none;fontColor=default;strokeColor=#E07A5F;" edge="1" parent="1">
          <mxGeometry width="50" height="50" relative="1" as="geometry">
            <mxPoint x="699.5" y="450" as="sourcePoint" />
            <mxPoint x="489.6666666666665" y="450" as="targetPoint" />
          </mxGeometry>
        </mxCell>
        <mxCell id="5TeGuhc-esVz1vt5C5Wg-20" value="SendSubmissionDetails()" style="edgeLabel;html=1;align=center;verticalAlign=middle;resizable=0;points=[];labelBackgroundColor=none;fontColor=#393C56;" vertex="1" connectable="0" parent="5TeGuhc-esVz1vt5C5Wg-19">
          <mxGeometry x="-0.0945" y="3" relative="1" as="geometry">
            <mxPoint x="-4" y="-13" as="offset" />
          </mxGeometry>
        </mxCell>
        <mxCell id="5TeGuhc-esVz1vt5C5Wg-22" value="&lt;font data-font-src=&quot;https://fonts.googleapis.com/css?family=Vazirmatn&quot; face=&quot;Vazirmatn&quot;&gt;ثبت درخواست&lt;br&gt;&lt;/font&gt;" style="swimlane;whiteSpace=wrap;html=1;labelBackgroundColor=none;fillColor=#F2CC8F;strokeColor=#E07A5F;fontColor=#393C56;" vertex="1" parent="1">
          <mxGeometry x="60" y="160" width="720" height="450" as="geometry" />
        </mxCell>
      </root>
    </mxGraphModel>
  </diagram>
  <diagram id="CgJptpYGcHcfAVrDYGNF" name="Page-2">
    <mxGraphModel dx="3597" dy="2450" grid="1" gridSize="10" guides="1" tooltips="1" connect="1" arrows="1" fold="1" page="1" pageScale="1" pageWidth="850" pageHeight="1100" math="0" shadow="0">
      <root>
        <mxCell id="0" />
        <mxCell id="1" parent="0" />
        <mxCell id="Ik3z233nA-b7LlfOSzA3-1" value="Client" style="shape=umlLifeline;perimeter=lifelinePerimeter;whiteSpace=wrap;html=1;container=1;dropTarget=0;collapsible=0;recursiveResize=0;outlineConnect=0;portConstraint=eastwest;newEdgeStyle={&quot;edgeStyle&quot;:&quot;elbowEdgeStyle&quot;,&quot;elbow&quot;:&quot;vertical&quot;,&quot;curved&quot;:0,&quot;rounded&quot;:0};labelBackgroundColor=none;fillColor=#F2CC8F;strokeColor=#E07A5F;fontColor=#393C56;" vertex="1" parent="1">
          <mxGeometry x="560" y="250" width="100" height="330" as="geometry" />
        </mxCell>
        <mxCell id="U7vcVs04AaiKsD-blch1-15" value="" style="html=1;points=[[0,0,0,0,5],[0,1,0,0,-5],[1,0,0,0,5],[1,1,0,0,-5]];perimeter=orthogonalPerimeter;outlineConnect=0;targetShapes=umlLifeline;portConstraint=eastwest;newEdgeStyle={&quot;curved&quot;:0,&quot;rounded&quot;:0};strokeColor=#E07A5F;fontColor=#393C56;fillColor=#F2CC8F;" vertex="1" parent="Ik3z233nA-b7LlfOSzA3-1">
          <mxGeometry x="45" y="60" width="10" height="260" as="geometry" />
        </mxCell>
        <mxCell id="Ik3z233nA-b7LlfOSzA3-3" value="" style="shape=umlLifeline;perimeter=lifelinePerimeter;whiteSpace=wrap;html=1;container=1;dropTarget=0;collapsible=0;recursiveResize=0;outlineConnect=0;portConstraint=eastwest;newEdgeStyle={&quot;curved&quot;:0,&quot;rounded&quot;:0};participant=umlActor;labelBackgroundColor=none;fillColor=#F2CC8F;strokeColor=#E07A5F;fontColor=#393C56;" vertex="1" parent="1">
          <mxGeometry x="430" y="250" width="20" height="330" as="geometry" />
        </mxCell>
        <mxCell id="Ik3z233nA-b7LlfOSzA3-6" value="&lt;div&gt;System&lt;/div&gt;&lt;div&gt;Manger&lt;br&gt;&lt;/div&gt;" style="shape=umlLifeline;perimeter=lifelinePerimeter;whiteSpace=wrap;html=1;container=1;dropTarget=0;collapsible=0;recursiveResize=0;outlineConnect=0;portConstraint=eastwest;newEdgeStyle={&quot;edgeStyle&quot;:&quot;elbowEdgeStyle&quot;,&quot;elbow&quot;:&quot;vertical&quot;,&quot;curved&quot;:0,&quot;rounded&quot;:0};labelBackgroundColor=none;fillColor=#F2CC8F;strokeColor=#E07A5F;fontColor=#393C56;" vertex="1" parent="1">
          <mxGeometry x="770" y="250" width="100" height="330" as="geometry" />
        </mxCell>
        <mxCell id="U7vcVs04AaiKsD-blch1-16" value="" style="html=1;points=[[0,0,0,0,5],[0,1,0,0,-5],[1,0,0,0,5],[1,1,0,0,-5]];perimeter=orthogonalPerimeter;outlineConnect=0;targetShapes=umlLifeline;portConstraint=eastwest;newEdgeStyle={&quot;curved&quot;:0,&quot;rounded&quot;:0};strokeColor=#E07A5F;fontColor=#393C56;fillColor=#F2CC8F;" vertex="1" parent="Ik3z233nA-b7LlfOSzA3-6">
          <mxGeometry x="45" y="100" width="10" height="220" as="geometry" />
        </mxCell>
        <mxCell id="Ik3z233nA-b7LlfOSzA3-10" value="&lt;div&gt;Data&lt;/div&gt;&lt;div&gt;Handler&lt;br&gt;&lt;/div&gt;" style="shape=umlLifeline;perimeter=lifelinePerimeter;whiteSpace=wrap;html=1;container=1;dropTarget=0;collapsible=0;recursiveResize=0;outlineConnect=0;portConstraint=eastwest;newEdgeStyle={&quot;edgeStyle&quot;:&quot;elbowEdgeStyle&quot;,&quot;elbow&quot;:&quot;vertical&quot;,&quot;curved&quot;:0,&quot;rounded&quot;:0};labelBackgroundColor=none;fillColor=#F2CC8F;strokeColor=#E07A5F;fontColor=#393C56;" vertex="1" parent="1">
          <mxGeometry x="980" y="250" width="100" height="330" as="geometry" />
        </mxCell>
        <mxCell id="U7vcVs04AaiKsD-blch1-17" value="" style="html=1;points=[[0,0,0,0,5],[0,1,0,0,-5],[1,0,0,0,5],[1,1,0,0,-5]];perimeter=orthogonalPerimeter;outlineConnect=0;targetShapes=umlLifeline;portConstraint=eastwest;newEdgeStyle={&quot;curved&quot;:0,&quot;rounded&quot;:0};strokeColor=#E07A5F;fontColor=#393C56;fillColor=#F2CC8F;" vertex="1" parent="Ik3z233nA-b7LlfOSzA3-10">
          <mxGeometry x="45" y="150" width="10" height="70" as="geometry" />
        </mxCell>
        <mxCell id="Ik3z233nA-b7LlfOSzA3-18" value="&lt;font face=&quot;Vazirmatn&quot;&gt;امتیاز و نظردادن به عملکرد درخواست&lt;/font&gt;" style="swimlane;whiteSpace=wrap;html=1;labelBackgroundColor=none;fillColor=#F2CC8F;strokeColor=#E07A5F;fontColor=#393C56;" vertex="1" parent="1">
          <mxGeometry x="390" y="170" width="920" height="450" as="geometry" />
        </mxCell>
        <mxCell id="Ik3z233nA-b7LlfOSzA3-19" value="Manager" style="shape=umlLifeline;perimeter=lifelinePerimeter;whiteSpace=wrap;html=1;container=1;dropTarget=0;collapsible=0;recursiveResize=0;outlineConnect=0;portConstraint=eastwest;newEdgeStyle={&quot;edgeStyle&quot;:&quot;elbowEdgeStyle&quot;,&quot;elbow&quot;:&quot;vertical&quot;,&quot;curved&quot;:0,&quot;rounded&quot;:0};labelBackgroundColor=none;fillColor=#F2CC8F;strokeColor=#E07A5F;fontColor=#393C56;" vertex="1" parent="Ik3z233nA-b7LlfOSzA3-18">
          <mxGeometry x="800" y="80" width="100" height="330" as="geometry" />
        </mxCell>
        <mxCell id="U7vcVs04AaiKsD-blch1-19" value="" style="html=1;points=[[0,0,0,0,5],[0,1,0,0,-5],[1,0,0,0,5],[1,1,0,0,-5]];perimeter=orthogonalPerimeter;outlineConnect=0;targetShapes=umlLifeline;portConstraint=eastwest;newEdgeStyle={&quot;curved&quot;:0,&quot;rounded&quot;:0};strokeColor=#E07A5F;fontColor=#393C56;fillColor=#F2CC8F;" vertex="1" parent="Ik3z233nA-b7LlfOSzA3-19">
          <mxGeometry x="45" y="220" width="10" height="80" as="geometry" />
        </mxCell>
        <mxCell id="U7vcVs04AaiKsD-blch1-3" value="" style="endArrow=classic;html=1;rounded=0;strokeColor=#E07A5F;fontColor=#393C56;fillColor=#F2CC8F;" edge="1" parent="Ik3z233nA-b7LlfOSzA3-18" source="Ik3z233nA-b7LlfOSzA3-6" target="Ik3z233nA-b7LlfOSzA3-10">
          <mxGeometry width="50" height="50" relative="1" as="geometry">
            <mxPoint x="580" y="190" as="sourcePoint" />
            <mxPoint x="630" y="140" as="targetPoint" />
          </mxGeometry>
        </mxCell>
        <mxCell id="U7vcVs04AaiKsD-blch1-4" value="saveData()" style="edgeLabel;html=1;align=center;verticalAlign=middle;resizable=0;points=[];strokeColor=#E07A5F;fontColor=#393C56;fillColor=#F2CC8F;" vertex="1" connectable="0" parent="U7vcVs04AaiKsD-blch1-3">
          <mxGeometry x="0.3857" y="3" relative="1" as="geometry">
            <mxPoint x="-45" y="-12" as="offset" />
          </mxGeometry>
        </mxCell>
        <mxCell id="U7vcVs04AaiKsD-blch1-7" value="" style="endArrow=classic;html=1;rounded=0;strokeColor=#E07A5F;fontColor=#393C56;fillColor=#F2CC8F;" edge="1" parent="Ik3z233nA-b7LlfOSzA3-18">
          <mxGeometry width="50" height="50" relative="1" as="geometry">
            <mxPoint x="429.6666666666665" y="320" as="sourcePoint" />
            <mxPoint x="849.5" y="320" as="targetPoint" />
          </mxGeometry>
        </mxCell>
        <mxCell id="U7vcVs04AaiKsD-blch1-8" value="notifyFeedback(requestID, feedbackDetails)" style="edgeLabel;html=1;align=center;verticalAlign=middle;resizable=0;points=[];strokeColor=#E07A5F;fontColor=#393C56;fillColor=#F2CC8F;" vertex="1" connectable="0" parent="U7vcVs04AaiKsD-blch1-7">
          <mxGeometry x="0.3688" y="-1" relative="1" as="geometry">
            <mxPoint x="-87" y="9" as="offset" />
          </mxGeometry>
        </mxCell>
        <mxCell id="U7vcVs04AaiKsD-blch1-11" value="" style="endArrow=classic;html=1;rounded=0;strokeColor=#E07A5F;fontColor=#393C56;fillColor=#F2CC8F;" edge="1" parent="Ik3z233nA-b7LlfOSzA3-18">
          <mxGeometry width="50" height="50" relative="1" as="geometry">
            <mxPoint x="849.5" y="360" as="sourcePoint" />
            <mxPoint x="429.6666666666665" y="360" as="targetPoint" />
          </mxGeometry>
        </mxCell>
        <mxCell id="U7vcVs04AaiKsD-blch1-12" value="acknowledgeFeedback()" style="edgeLabel;html=1;align=center;verticalAlign=middle;resizable=0;points=[];strokeColor=#E07A5F;fontColor=#393C56;fillColor=#F2CC8F;" vertex="1" connectable="0" parent="U7vcVs04AaiKsD-blch1-11">
          <mxGeometry x="-0.611" y="1" relative="1" as="geometry">
            <mxPoint x="-198" y="9" as="offset" />
          </mxGeometry>
        </mxCell>
        <mxCell id="1baYMyNBDGH_gd1cWEgZ-1" value="" style="endArrow=classic;html=1;rounded=0;strokeColor=#E07A5F;fontColor=#393C56;fillColor=#F2CC8F;" edge="1" parent="1" source="Ik3z233nA-b7LlfOSzA3-3" target="Ik3z233nA-b7LlfOSzA3-1">
          <mxGeometry width="50" height="50" relative="1" as="geometry">
            <mxPoint x="790" y="310" as="sourcePoint" />
            <mxPoint x="840" y="260" as="targetPoint" />
            <Array as="points">
              <mxPoint x="530" y="330" />
            </Array>
          </mxGeometry>
        </mxCell>
        <mxCell id="1baYMyNBDGH_gd1cWEgZ-2" value="sendRespond(requestID, rating, feedbackText)" style="edgeLabel;html=1;align=center;verticalAlign=middle;resizable=0;points=[];strokeColor=#E07A5F;fontColor=#393C56;fillColor=#F2CC8F;" vertex="1" connectable="0" parent="1baYMyNBDGH_gd1cWEgZ-1">
          <mxGeometry x="0.3093" y="1" relative="1" as="geometry">
            <mxPoint x="-21" y="21" as="offset" />
          </mxGeometry>
        </mxCell>
        <mxCell id="U7vcVs04AaiKsD-blch1-1" value="" style="endArrow=classic;html=1;rounded=0;strokeColor=#E07A5F;fontColor=#393C56;fillColor=#F2CC8F;" edge="1" parent="1" source="Ik3z233nA-b7LlfOSzA3-1" target="Ik3z233nA-b7LlfOSzA3-6">
          <mxGeometry width="50" height="50" relative="1" as="geometry">
            <mxPoint x="730" y="360" as="sourcePoint" />
            <mxPoint x="780" y="310" as="targetPoint" />
            <Array as="points">
              <mxPoint x="690" y="370" />
            </Array>
          </mxGeometry>
        </mxCell>
        <mxCell id="U7vcVs04AaiKsD-blch1-2" value="updateRequest(requestID, feedbackDetails)" style="edgeLabel;html=1;align=center;verticalAlign=middle;resizable=0;points=[];strokeColor=#E07A5F;fontColor=#393C56;fillColor=#F2CC8F;" vertex="1" connectable="0" parent="U7vcVs04AaiKsD-blch1-1">
          <mxGeometry x="0.0445" relative="1" as="geometry">
            <mxPoint y="20" as="offset" />
          </mxGeometry>
        </mxCell>
        <mxCell id="U7vcVs04AaiKsD-blch1-5" value="" style="endArrow=classic;html=1;rounded=0;strokeColor=#E07A5F;fontColor=#393C56;fillColor=#F2CC8F;" edge="1" parent="1" source="Ik3z233nA-b7LlfOSzA3-10" target="Ik3z233nA-b7LlfOSzA3-6">
          <mxGeometry width="50" height="50" relative="1" as="geometry">
            <mxPoint x="950" y="210" as="sourcePoint" />
            <mxPoint x="1000" y="160" as="targetPoint" />
            <Array as="points">
              <mxPoint x="920" y="450" />
            </Array>
          </mxGeometry>
        </mxCell>
        <mxCell id="U7vcVs04AaiKsD-blch1-6" value="confirmSubmission()" style="edgeLabel;html=1;align=center;verticalAlign=middle;resizable=0;points=[];strokeColor=#E07A5F;fontColor=#393C56;fillColor=#F2CC8F;" vertex="1" connectable="0" parent="U7vcVs04AaiKsD-blch1-5">
          <mxGeometry x="-0.1263" relative="1" as="geometry">
            <mxPoint x="-8" y="-10" as="offset" />
          </mxGeometry>
        </mxCell>
        <mxCell id="U7vcVs04AaiKsD-blch1-13" value="" style="endArrow=classic;html=1;rounded=0;strokeColor=#E07A5F;fontColor=#393C56;fillColor=#F2CC8F;" edge="1" parent="1" source="Ik3z233nA-b7LlfOSzA3-6" target="Ik3z233nA-b7LlfOSzA3-1">
          <mxGeometry width="50" height="50" relative="1" as="geometry">
            <mxPoint x="890" y="340" as="sourcePoint" />
            <mxPoint x="940" y="290" as="targetPoint" />
            <Array as="points">
              <mxPoint x="710" y="560" />
            </Array>
          </mxGeometry>
        </mxCell>
        <mxCell id="U7vcVs04AaiKsD-blch1-14" value="confirmFeedbackUpdate()" style="edgeLabel;html=1;align=center;verticalAlign=middle;resizable=0;points=[];strokeColor=#E07A5F;fontColor=#393C56;fillColor=#F2CC8F;" vertex="1" connectable="0" parent="U7vcVs04AaiKsD-blch1-13">
          <mxGeometry x="-0.3566" y="-1" relative="1" as="geometry">
            <mxPoint x="-22" y="-9" as="offset" />
          </mxGeometry>
        </mxCell>
      </root>
    </mxGraphModel>
  </diagram>
  <diagram id="QJXihTTvTfe4P7bZgrKf" name="Page-3">
    <mxGraphModel dx="2158" dy="1470" grid="1" gridSize="10" guides="1" tooltips="1" connect="1" arrows="1" fold="1" page="1" pageScale="1" pageWidth="850" pageHeight="1100" math="0" shadow="0">
      <root>
        <mxCell id="0" />
        <mxCell id="1" parent="0" />
        <mxCell id="44zXDO8Drx6OMzfm2gsY-1" value="&lt;div&gt;System&lt;/div&gt;&lt;div&gt;Manager&lt;br&gt;&lt;/div&gt;" style="shape=umlLifeline;perimeter=lifelinePerimeter;whiteSpace=wrap;html=1;container=1;dropTarget=0;collapsible=0;recursiveResize=0;outlineConnect=0;portConstraint=eastwest;newEdgeStyle={&quot;edgeStyle&quot;:&quot;elbowEdgeStyle&quot;,&quot;elbow&quot;:&quot;vertical&quot;,&quot;curved&quot;:0,&quot;rounded&quot;:0};labelBackgroundColor=none;fillColor=#F2CC8F;strokeColor=#E07A5F;fontColor=#393C56;" vertex="1" parent="1">
          <mxGeometry x="340" y="140" width="100" height="330" as="geometry" />
        </mxCell>
        <mxCell id="jnT09mWjpSllmfHxPQbR-4" value="" style="html=1;points=[[0,0,0,0,5],[0,1,0,0,-5],[1,0,0,0,5],[1,1,0,0,-5]];perimeter=orthogonalPerimeter;outlineConnect=0;targetShapes=umlLifeline;portConstraint=eastwest;newEdgeStyle={&quot;curved&quot;:0,&quot;rounded&quot;:0};strokeColor=#E07A5F;fontColor=#393C56;fillColor=#F2CC8F;" vertex="1" parent="44zXDO8Drx6OMzfm2gsY-1">
          <mxGeometry x="45" y="80" width="10" height="190" as="geometry" />
        </mxCell>
        <mxCell id="44zXDO8Drx6OMzfm2gsY-3" value="Driver" style="shape=umlLifeline;perimeter=lifelinePerimeter;whiteSpace=wrap;html=1;container=1;dropTarget=0;collapsible=0;recursiveResize=0;outlineConnect=0;portConstraint=eastwest;newEdgeStyle={&quot;curved&quot;:0,&quot;rounded&quot;:0};participant=umlActor;labelBackgroundColor=none;fillColor=#F2CC8F;strokeColor=#E07A5F;fontColor=#393C56;size=40;" vertex="1" parent="1">
          <mxGeometry x="210" y="140" width="20" height="330" as="geometry" />
        </mxCell>
        <mxCell id="44zXDO8Drx6OMzfm2gsY-4" value="&lt;div&gt;Data&lt;/div&gt;&lt;div&gt;Handler&lt;br&gt;&lt;/div&gt;" style="shape=umlLifeline;perimeter=lifelinePerimeter;whiteSpace=wrap;html=1;container=1;dropTarget=0;collapsible=0;recursiveResize=0;outlineConnect=0;portConstraint=eastwest;newEdgeStyle={&quot;edgeStyle&quot;:&quot;elbowEdgeStyle&quot;,&quot;elbow&quot;:&quot;vertical&quot;,&quot;curved&quot;:0,&quot;rounded&quot;:0};labelBackgroundColor=none;fillColor=#F2CC8F;strokeColor=#E07A5F;fontColor=#393C56;" vertex="1" parent="1">
          <mxGeometry x="550" y="140" width="100" height="330" as="geometry" />
        </mxCell>
        <mxCell id="jnT09mWjpSllmfHxPQbR-5" value="" style="html=1;points=[[0,0,0,0,5],[0,1,0,0,-5],[1,0,0,0,5],[1,1,0,0,-5]];perimeter=orthogonalPerimeter;outlineConnect=0;targetShapes=umlLifeline;portConstraint=eastwest;newEdgeStyle={&quot;curved&quot;:0,&quot;rounded&quot;:0};strokeColor=#E07A5F;fontColor=#393C56;fillColor=#F2CC8F;" vertex="1" parent="44zXDO8Drx6OMzfm2gsY-4">
          <mxGeometry x="45" y="190" width="10" height="50" as="geometry" />
        </mxCell>
        <mxCell id="44zXDO8Drx6OMzfm2gsY-8" value="&lt;font face=&quot;Vazirmatn&quot;&gt;امتیاز و نظردادن به عملکرد درخواست&lt;/font&gt;" style="swimlane;whiteSpace=wrap;html=1;labelBackgroundColor=none;fillColor=#F2CC8F;strokeColor=#E07A5F;fontColor=#393C56;" vertex="1" parent="1">
          <mxGeometry x="170" y="60" width="510" height="450" as="geometry" />
        </mxCell>
        <mxCell id="44zXDO8Drx6OMzfm2gsY-25" value="" style="endArrow=classic;html=1;rounded=0;strokeColor=#E07A5F;fontColor=#393C56;fillColor=#F2CC8F;" edge="1" parent="44zXDO8Drx6OMzfm2gsY-8">
          <mxGeometry width="50" height="50" relative="1" as="geometry">
            <mxPoint x="49.78571428571422" y="170.0000000000001" as="sourcePoint" />
            <mxPoint x="220" y="170" as="targetPoint" />
          </mxGeometry>
        </mxCell>
        <mxCell id="44zXDO8Drx6OMzfm2gsY-26" value="acceptRequest(requestID)" style="text;html=1;align=center;verticalAlign=middle;resizable=0;points=[];autosize=1;strokeColor=none;fillColor=none;fontColor=#393C56;" vertex="1" parent="44zXDO8Drx6OMzfm2gsY-8">
          <mxGeometry x="50" y="140" width="160" height="30" as="geometry" />
        </mxCell>
        <mxCell id="44zXDO8Drx6OMzfm2gsY-28" value="" style="endArrow=classic;html=1;rounded=0;strokeColor=#E07A5F;fontColor=#393C56;fillColor=#F2CC8F;" edge="1" parent="44zXDO8Drx6OMzfm2gsY-8">
          <mxGeometry width="50" height="50" relative="1" as="geometry">
            <mxPoint x="219.99571428571423" y="200.0000000000001" as="sourcePoint" />
            <mxPoint x="219.99571428571423" y="220.0000000000001" as="targetPoint" />
            <Array as="points">
              <mxPoint x="280" y="200" />
              <mxPoint x="280" y="210" />
              <mxPoint x="280" y="220" />
            </Array>
          </mxGeometry>
        </mxCell>
        <mxCell id="44zXDO8Drx6OMzfm2gsY-29" value="findRequest(requestID)" style="edgeLabel;html=1;align=center;verticalAlign=middle;resizable=0;points=[];strokeColor=#E07A5F;fontColor=#393C56;fillColor=#F2CC8F;" vertex="1" connectable="0" parent="44zXDO8Drx6OMzfm2gsY-28">
          <mxGeometry x="0.4755" y="-1" relative="1" as="geometry">
            <mxPoint x="54" y="-9" as="offset" />
          </mxGeometry>
        </mxCell>
        <mxCell id="jnT09mWjpSllmfHxPQbR-3" value="" style="html=1;points=[[0,0,0,0,5],[0,1,0,0,-5],[1,0,0,0,5],[1,1,0,0,-5]];perimeter=orthogonalPerimeter;outlineConnect=0;targetShapes=umlLifeline;portConstraint=eastwest;newEdgeStyle={&quot;curved&quot;:0,&quot;rounded&quot;:0};strokeColor=#E07A5F;fontColor=#393C56;fillColor=#F2CC8F;" vertex="1" parent="44zXDO8Drx6OMzfm2gsY-8">
          <mxGeometry x="45" y="160" width="10" height="190" as="geometry" />
        </mxCell>
        <mxCell id="44zXDO8Drx6OMzfm2gsY-31" value="" style="endArrow=classic;html=1;rounded=0;strokeColor=#E07A5F;fontColor=#393C56;fillColor=#F2CC8F;elbow=horizontal;" edge="1" parent="1" source="44zXDO8Drx6OMzfm2gsY-1" target="44zXDO8Drx6OMzfm2gsY-1">
          <mxGeometry width="50" height="50" relative="1" as="geometry">
            <mxPoint x="460" y="330" as="sourcePoint" />
            <mxPoint x="510" y="280" as="targetPoint" />
            <Array as="points">
              <mxPoint x="450" y="310" />
            </Array>
          </mxGeometry>
        </mxCell>
        <mxCell id="44zXDO8Drx6OMzfm2gsY-32" value="updateRequestStatus(requestID, &quot;Accepted&quot;)" style="edgeLabel;html=1;align=center;verticalAlign=middle;resizable=0;points=[];strokeColor=#E07A5F;fontColor=#393C56;fillColor=#F2CC8F;" vertex="1" connectable="0" parent="44zXDO8Drx6OMzfm2gsY-31">
          <mxGeometry x="0.4822" y="-3" relative="1" as="geometry">
            <mxPoint x="84" y="-7" as="offset" />
          </mxGeometry>
        </mxCell>
        <mxCell id="44zXDO8Drx6OMzfm2gsY-33" value="" style="endArrow=classic;html=1;rounded=0;strokeColor=#E07A5F;fontColor=#393C56;fillColor=#F2CC8F;" edge="1" parent="1" source="44zXDO8Drx6OMzfm2gsY-1" target="44zXDO8Drx6OMzfm2gsY-4">
          <mxGeometry width="50" height="50" relative="1" as="geometry">
            <mxPoint x="460" y="330" as="sourcePoint" />
            <mxPoint x="510" y="280" as="targetPoint" />
            <Array as="points">
              <mxPoint x="500" y="340" />
            </Array>
          </mxGeometry>
        </mxCell>
        <mxCell id="44zXDO8Drx6OMzfm2gsY-34" value="saveData(request)" style="edgeLabel;html=1;align=center;verticalAlign=middle;resizable=0;points=[];strokeColor=#E07A5F;fontColor=#393C56;fillColor=#F2CC8F;" vertex="1" connectable="0" parent="44zXDO8Drx6OMzfm2gsY-33">
          <mxGeometry x="0.2187" y="-2" relative="1" as="geometry">
            <mxPoint x="-28" y="-12" as="offset" />
          </mxGeometry>
        </mxCell>
        <mxCell id="44zXDO8Drx6OMzfm2gsY-35" value="" style="endArrow=classic;html=1;rounded=0;strokeColor=#E07A5F;fontColor=#393C56;fillColor=#F2CC8F;" edge="1" parent="1" source="44zXDO8Drx6OMzfm2gsY-4" target="44zXDO8Drx6OMzfm2gsY-1">
          <mxGeometry width="50" height="50" relative="1" as="geometry">
            <mxPoint x="460" y="330" as="sourcePoint" />
            <mxPoint x="510" y="280" as="targetPoint" />
            <Array as="points">
              <mxPoint x="490" y="370" />
            </Array>
          </mxGeometry>
        </mxCell>
        <mxCell id="44zXDO8Drx6OMzfm2gsY-36" value="confirmSubmission()" style="edgeLabel;html=1;align=center;verticalAlign=middle;resizable=0;points=[];strokeColor=#E07A5F;fontColor=#393C56;fillColor=#F2CC8F;" vertex="1" connectable="0" parent="44zXDO8Drx6OMzfm2gsY-35">
          <mxGeometry x="-0.1301" y="-1" relative="1" as="geometry">
            <mxPoint x="-18" y="-9" as="offset" />
          </mxGeometry>
        </mxCell>
        <mxCell id="jnT09mWjpSllmfHxPQbR-1" value="" style="endArrow=classic;html=1;rounded=0;strokeColor=#E07A5F;fontColor=#393C56;fillColor=#F2CC8F;" edge="1" parent="1" source="44zXDO8Drx6OMzfm2gsY-1" target="44zXDO8Drx6OMzfm2gsY-3">
          <mxGeometry width="50" height="50" relative="1" as="geometry">
            <mxPoint x="460" y="330" as="sourcePoint" />
            <mxPoint x="510" y="280" as="targetPoint" />
            <Array as="points">
              <mxPoint x="290" y="400" />
            </Array>
          </mxGeometry>
        </mxCell>
        <mxCell id="jnT09mWjpSllmfHxPQbR-2" value="confirmAcceptance()" style="edgeLabel;html=1;align=center;verticalAlign=middle;resizable=0;points=[];strokeColor=#E07A5F;fontColor=#393C56;fillColor=#F2CC8F;" vertex="1" connectable="0" parent="jnT09mWjpSllmfHxPQbR-1">
          <mxGeometry x="-0.3123" y="2" relative="1" as="geometry">
            <mxPoint x="-31" y="-12" as="offset" />
          </mxGeometry>
        </mxCell>
      </root>
    </mxGraphModel>
  </diagram>
</mxfile>
